<svg width="16" height="16" viewBox="0 0 16 16" fill="none" xmlns="http://www.w3.org/2000/svg">
<path d="M5.9316 11.0336H13.0105C13.2468 11.0336 13.4531 10.8383 13.4531 10.5758C13.4531 10.3133 13.2468 10.1179 13.0105 10.1179H6.03461C5.68884 10.1179 5.47661 9.87368 5.42201 9.50154L5.32495 8.86066H13.0224C13.9081 8.86066 14.3631 8.31118 14.4904 7.43853L14.9757 4.20963C14.9887 4.13297 14.9968 4.05556 15 3.97786C15 3.68489 14.7816 3.48333 14.448 3.48333H4.54257L4.42715 2.70833C4.36658 2.23828 4.19681 2 3.57825 2H1.44877C1.20627 2 1 2.21406 1 2.45833C1 2.70833 1.20627 2.92213 1.44903 2.92213H3.49906L4.46959 9.62368C4.59718 10.4903 5.05191 11.0336 5.9316 11.0336ZM13.9686 4.40494L13.5385 7.32863C13.4899 7.70702 13.2898 7.93905 12.9319 7.93905L5.19193 7.94503L4.67612 4.40494H13.9686ZM6.41091 14C6.54026 14.001 6.66853 13.9762 6.78824 13.9269C6.90795 13.8776 7.0167 13.8048 7.10817 13.7128C7.19963 13.6207 7.27198 13.5113 7.32099 13.3908C7.36999 13.2704 7.39468 13.1413 7.39361 13.0112C7.39419 12.8812 7.36917 12.7523 7.31999 12.6321C7.27082 12.5118 7.19845 12.4026 7.10708 12.3107C7.01572 12.2187 6.90715 12.1459 6.78766 12.0964C6.66818 12.047 6.54013 12.0218 6.41091 12.0224C5.85913 12.0224 5.42227 12.462 5.42227 13.0112C5.42227 13.5666 5.85913 14 6.41091 14ZM12.0824 14C12.6345 14 13.0711 13.5666 13.0711 13.0112C13.0711 12.4617 12.6345 12.0224 12.0824 12.0224C11.5366 12.0224 11.0938 12.462 11.0938 13.0112C11.0938 13.5666 11.5366 14 12.0824 14Z" fill="#FFF2EB"/>
</svg>
