<svg width="123" height="116" viewBox="0 0 123 116" fill="none" xmlns="http://www.w3.org/2000/svg">
<path d="M60.288 98.7441L43.2976 102.041C40.8192 102.446 38.2815 101.85 36.2426 100.384C34.2037 98.9182 32.8307 96.7022 32.4257 94.2238L22.2444 31.9253C21.8393 29.4469 22.4354 26.9092 23.9015 24.8703C25.3676 22.8314 27.5836 21.4584 30.062 21.0534L48.0001 17.4997" stroke="#AEAEAE" stroke-width="6" stroke-linejoin="round"/>
<path d="M102.813 37.0625L80.9375 15.1875C80.3125 14.5625 79.6875 14.25 78.75 14.25H47.5C44.0625 14.25 41.25 17.0625 41.25 20.5V95.5C41.25 98.9375 44.0625 101.75 47.5 101.75H97.5C100.938 101.75 103.75 98.9375 103.75 95.5V39.25C103.75 38.3125 103.438 37.6875 102.813 37.0625ZM78.75 21.75L96.25 39.25H78.75V21.75ZM97.5 95.5H47.5V58V20.5H72.5V39.25C72.5 42.6875 75.3125 45.5 78.75 45.5H97.5V95.5Z" fill="#AEAEAE"/>
<path d="M53.75 76.75H91.25V83H53.75V76.75ZM53.75 58H91.25V64.25H53.75V58Z" fill="#AEAEAE"/>
</svg>
