<svg width="137" height="116" viewBox="0 0 137 116" fill="none" xmlns="http://www.w3.org/2000/svg">
<path d="M62 40.084H78.6667" stroke="#AEAEAE" stroke-width="7" stroke-linecap="round" stroke-linejoin="round"/>
<path d="M123.804 44.355H112.963C105.525 44.355 99.5 50.0907 99.5 57.1674C99.5 64.2442 105.529 69.9799 112.958 69.9799H123.804C124.154 69.9799 124.325 69.9799 124.471 69.9714C126.721 69.8304 128.512 68.1264 128.658 65.9867C128.667 65.85 128.667 65.6835 128.667 65.3546V48.9803C128.667 48.6514 128.667 48.4849 128.658 48.3482C128.508 46.2085 126.721 44.5045 124.471 44.3635C124.329 44.355 124.154 44.355 123.804 44.355Z" stroke="#AEAEAE" stroke-width="7"/>
<path d="M124.354 44.3546C124.029 36.3596 122.987 31.4567 119.616 28.0059C114.737 23.0005 106.879 23.0005 91.1663 23.0005H78.6663C62.9538 23.0005 55.0955 23.0005 50.2163 28.0059C45.3372 33.0113 45.333 41.0618 45.333 57.1671C45.333 73.2723 45.333 81.3271 50.2163 86.3282C55.0997 91.3294 62.9538 91.3337 78.6663 91.3337H91.1663C106.879 91.3337 114.737 91.3337 119.616 86.3282C122.987 82.8774 124.033 77.9745 124.354 69.9795" stroke="#AEAEAE" stroke-width="7"/>
<path d="M111.963 57.1675H112.004" stroke="#AEAEAE" stroke-width="7" stroke-linecap="round" stroke-linejoin="round"/>
<g clip-path="url(#clip0_4500_18972)">
<path d="M56.2307 24.3312L43.9185 26.4898C28.442 29.2032 20.7018 30.5602 16.7392 36.2128C12.7766 41.8653 14.1289 49.6022 16.8422 65.0786C19.5556 80.5551 20.9126 88.2954 26.5652 92.2579C32.2177 96.2205 39.9546 94.8683 55.4311 92.1549L61 90.5005" stroke="#AEAEAE" stroke-width="7"/>
</g>
<defs>
<clipPath id="clip0_4500_18972">
<rect width="100" height="100" fill="white" transform="translate(0 17.269) rotate(-9.94417)"/>
</clipPath>
</defs>
</svg>
